<?xml version="1.0" encoding="UTF-8"?><svg id="Layer_1" xmlns="http://www.w3.org/2000/svg" xmlns:xlink="http://www.w3.org/1999/xlink" viewBox="0 0 800 1080"><defs><style>.cls-1{fill:none;}.cls-2{clip-path:url(#clippath);}.cls-3{fill:#f4756e;}.cls-4{fill:#fc5649;}.cls-5{fill:#ffa194;}.cls-6{fill:#fffeeb;}.cls-7{fill:#fff;}.cls-8{fill:#efc618;}.cls-9{fill:#ffb624;}.cls-10{fill:#3180b5;}.cls-11{fill:#cbf4e1;}.cls-12{fill:#dd6837;}.cls-13{fill:#db5349;}.cls-14{fill:#b21f1f;}.cls-15{fill:#067744;}.cls-16{fill:#1c5482;}.cls-17{fill:#28121f;}.cls-18{clip-path:url(#clippath-1);}</style><clipPath id="clippath"><path class="cls-1" d="m733.67,728.17c0,70.89-28.17,135.2-73.93,182.34-47.58,49.01-114.17,79.47-187.88,79.47s-138.61-29.69-186.06-77.62c-46.83-47.3-75.75-112.37-75.75-184.19,0-6.73.25-13.39.75-19.99.15-1.99.32-3.97.52-5.95.22-2.28.48-4.56.76-6.82,1.02-8.17,2.41-16.22,4.17-24.14.49-2.2,1-4.4,1.55-6.58,3.46-13.92,8.04-27.4,13.64-40.34,1.27-2.93,2.59-5.84,3.96-8.71,1.54-3.23,3.14-6.43,4.8-9.58,5.87-11.11,12.51-21.74,19.86-31.83,2.13-2.93,4.31-5.8,6.56-8.63,18.34-23.13,40.51-43.08,65.55-58.91,14.22-8.99,29.36-16.65,45.26-22.79,9.8-3.8,19.89-7.02,30.23-9.62,2.77-.7,5.55-1.35,8.36-1.96,13.29-2.89,26.95-4.77,40.91-5.55,2.4-.14,4.81-.24,7.23-.3,2.56-.08,5.12-.12,7.7-.12,8.24,0,16.38.38,24.42,1.13,3.3.3,6.57.66,9.83,1.09.3.04.6.08.91.12,71.42,9.59,133.71,47.97,174.82,103.07,32.56,43.64,51.83,97.78,51.83,156.41Z"/></clipPath><clipPath id="clippath-1"><path class="cls-1" d="m733.67,728.17c0,70.89-28.17,135.2-73.93,182.34-47.58,49.01-114.17,79.47-187.88,79.47s-138.61-29.69-186.06-77.62c-46.83-47.3-75.75-112.37-75.75-184.19,0-6.73.25-13.39.75-19.99.15-1.99.32-3.97.52-5.95.22-2.28.48-4.56.76-6.82,1.02-8.17,2.41-16.22,4.17-24.14.49-2.2,1-4.4,1.55-6.58,3.46-13.92,8.04-27.4,13.64-40.34,1.27-2.93,2.59-5.84,3.96-8.71,1.54-3.23,3.14-6.43,4.8-9.58,5.87-11.11,12.51-21.74,19.86-31.83,2.13-2.93,4.31-5.8,6.56-8.63,18.34-23.13,40.51-43.08,65.55-58.91,14.22-8.99,29.36-16.65,45.26-22.79,9.8-3.8,19.89-7.02,30.23-9.62,2.77-.7,5.55-1.35,8.36-1.96,13.29-2.89,26.95-4.77,40.91-5.55,2.4-.14,4.81-.24,7.23-.3,2.56-.08,5.12-.12,7.7-.12,8.24,0,16.38.38,24.42,1.13,3.3.3,6.57.66,9.83,1.09.3.04.6.08.91.12,71.42,9.59,133.71,47.97,174.82,103.07,32.56,43.64,51.83,97.78,51.83,156.41Z"/></clipPath></defs><g class="cls-2"><path class="cls-11" d="m733.67,728.17c0,70.89-28.17,135.2-73.93,182.34-47.58,49.01-114.17,79.47-187.88,79.47s-138.61-29.69-186.06-77.62c-46.83-47.3-75.75-112.37-75.75-184.19,0-6.73.25-13.39.75-19.99.15-1.99.32-3.97.52-5.95.22-2.28.48-4.56.76-6.82,1.02-8.17,2.41-16.22,4.17-24.14.49-2.2,1-4.4,1.55-6.58,3.46-13.92,8.04-27.4,13.64-40.34,1.27-2.93,2.59-5.84,3.96-8.71,1.54-3.23,3.14-6.43,4.8-9.58,5.87-11.11,12.51-21.74,19.86-31.83,2.13-2.93,4.31-5.8,6.56-8.63,18.34-23.13,40.51-43.08,65.55-58.91,14.22-8.99,29.36-16.65,45.26-22.79,9.8-3.8,19.89-7.02,30.23-9.62,2.77-.7,5.55-1.35,8.36-1.96,13.29-2.89,26.95-4.77,40.91-5.55,2.4-.14,4.81-.24,7.23-.3,2.56-.08,5.12-.12,7.7-.12,8.24,0,16.38.38,24.42,1.13,3.3.3,6.57.66,9.83,1.09.3.04.6.08.91.12,71.42,9.59,133.71,47.97,174.82,103.07,32.56,43.64,51.83,97.78,51.83,156.41Z"/><path class="cls-9" d="m192.39,676.58s-32.09,10.5-31.93,50.42-16.66,49.82,5.33,79.89c21.99,30.08,55.01-15.45,71.98-14.46,16.97,1,64.9-9.81,45.17-55.13s-54.11-75.47-90.55-60.73Z"/><polygon class="cls-12" points="191.89 670.55 205.52 628.37 213 632.4 194.87 673.17 191.89 670.55"/><path class="cls-15" d="m204.2,652.22s-3.89,59.4-47.88,75.63c-43.99,16.23-50.32-12.27-50.32-12.27,0,0,29.49-67.37,98.2-63.36Z"/><path class="cls-7" d="m279.86,751.88s2.08,6.83-.84,8.03c-2.92,1.2-1.2-8.4-.29-9.27.56-.54,1.13,1.24,1.13,1.24Z"/><path class="cls-7" d="m272.37,759.34s-.77,7.1-3.92,7.06,2.19-8.2,3.37-8.65c.72-.27.55,1.59.55,1.59Z"/><path class="cls-7" d="m272.15,741.98s2.32,6.75-.55,8.05c-2.87,1.3-1.5-8.35-.62-9.26.54-.56,1.17,1.2,1.17,1.2Z"/><path class="cls-8" d="m773.09,572.59s17.09,73.76-35.98,104.35-93.55,2.7-95.35-10.79c-1.8-13.49,0-94.45,61.17-105.25,61.17-10.79,70.16,11.69,70.16,11.69Z"/><path class="cls-15" d="m703.03,588.44s35.92,40.97,76.91,28.25c40.99-12.72,29.71-36.94,29.71-36.94,0,0-58.95-32.5-106.62,8.69Z"/><path class="cls-7" d="m687.07,682.63s11.52,2.8,13.24-2.15c1.72-4.95-14.05-1.2-15.41.4-.84.98,2.17,1.75,2.17,1.75Z"/><path class="cls-7" d="m698.73,669.5s11.7-1.94,11.34-7.17c-.36-5.23-13.39,4.41-14.02,6.41-.39,1.23,2.69.76,2.69.76Z"/><path class="cls-7" d="m669.91,670.76s11.42,3.21,13.31-1.68c1.89-4.89-14-1.7-15.42-.15-.87.95,2.11,1.83,2.11,1.83Z"/><path class="cls-4" d="m335.75,552.71s-18.03-9.6-29.89,2.82c-11.86,12.42,2.32,36.14,26.29,28.24,23.97-7.91,10.69-28.48,3.6-31.06Z"/><path class="cls-15" d="m310.1,560.62s-24,9.46-16.09-2.33c7.91-11.79,3.95-23.93,11.29-24.21s19.8,22.98,4.8,26.54Z"/><path class="cls-7" d="m314.43,579.12s2.01,2.92,3.38,2.16-2.89-3.07-3.51-2.98c-.38.05.13.82.13.82Z"/><path class="cls-7" d="m319.65,578.52s2.99,1.9,3.95.66-3.86-1.69-4.4-1.36c-.33.2.45.7.45.7Z"/><path class="cls-7" d="m312.97,573.06s1.91,2.99,3.3,2.28-2.78-3.17-3.41-3.1c-.38.04.11.83.11.83Z"/><path class="cls-4" d="m237.13,799.47s10.37-17.59-1.52-29.98c-11.9-12.39-36.21.74-29.35,25.03,6.86,24.29,27.99,11.91,30.87,4.95Z"/><path class="cls-7" d="m235.24,796.79s2.07-2.88.89-3.91-1.91,3.76-1.62,4.31c.18.34.73-.41.73-.41Z"/><path class="cls-7" d="m232.9,792.09s.77-3.46-.72-3.94-.28,4.2.2,4.6c.3.24.51-.66.51-.66Z"/><path class="cls-7" d="m230.03,800.21s2.17-2.8,1.03-3.88-2.04,3.69-1.77,4.25c.17.35.74-.38.74-.38Z"/><path class="cls-15" d="m212.19,778.84s-25.09-6.02-11.85-11.14c13.24-5.12,16.96-17.34,23.14-13.36,6.18,3.98,3.04,30.18-11.29,24.5Z"/><path class="cls-4" d="m702.31,717.93s-18.03-9.6-29.89,2.82,2.32,36.14,26.29,28.24c23.97-7.91,10.69-28.48,3.6-31.06Z"/><path class="cls-15" d="m702.52,748.43s-16.92-19.47-3.17-15.95c13.75,3.52,23.88-4.25,26.59,2.58,2.71,6.83-15.06,26.33-23.42,13.37Z"/><path class="cls-7" d="m676.58,742.26s2.01,2.92,3.38,2.16-2.89-3.07-3.51-2.98c-.38.05.13.82.13.82Z"/><path class="cls-7" d="m681.8,741.65s2.99,1.9,3.95.66-3.86-1.69-4.4-1.36c-.33.2.45.7.45.7Z"/><path class="cls-7" d="m675.12,736.2s1.91,2.99,3.3,2.28-2.78-3.17-3.41-3.1c-.38.04.11.83.11.83Z"/><path class="cls-15" d="m679.49,844.32s-46.46,5.17-47.98-46.22c0,0,18.85-7.23,35.91,10.83,0,0-3.4-48.92,74-53.63l-8.14,24.71,34.49,1.32s25.37,46.95-29.4,78.9l24.36,15.32s-30.48,16.58-52.39,1.35l-30.83-32.58Z"/><path class="cls-4" d="m600.44,947.55s31.56-43.49,45.2-54.14c13.64-10.65,13.31-35.26,22.21-44.82,8.91-9.56,8.4-18.55,21.83-12.49,13.43,6.07,35.36,24.41,8.6,43.03-26.76,18.62-31.62,45.14-43.67,53.1-12.05,7.96-33.17,13.17-44.47,29.37s-30.68,20.58-33.96,17.04c-3.28-3.54,2.41-2.55,24.25-31.1Z"/><path class="cls-7" d="m641.78,918.42s1.71,2.91,3.06,2.27c1.35-.63-2.54-3.1-3.14-3.07-.37.02.07.79.07.79Z"/><path class="cls-7" d="m662.08,911.47s2.72,2,3.71.89-3.56-1.86-4.09-1.59c-.33.16.38.7.38.7Z"/><path class="cls-7" d="m640.8,912.57s1.61,2.97,2.98,2.38-2.43-3.19-3.03-3.17c-.37.01.04.79.04.79Z"/><path class="cls-7" d="m668.52,881.82s1.71,2.91,3.06,2.27c1.35-.63-2.54-3.1-3.14-3.07-.37.02.07.79.07.79Z"/><path class="cls-7" d="m673.51,881.59s2.72,2,3.71.89-3.56-1.86-4.09-1.59c-.33.16.38.7.38.7Z"/><path class="cls-7" d="m702.6,861.97s2.72,2,3.71.89-3.56-1.86-4.09-1.59c-.33.16.38.7.38.7Z"/><path class="cls-7" d="m666.42,858.4s1.61,2.97,2.98,2.38-2.43-3.19-3.03-3.17c-.37.01.04.79.04.79Z"/><path class="cls-7" d="m671.38,855.44s1.61,2.97,2.98,2.38-2.43-3.19-3.03-3.17c-.37.01.04.79.04.79Z"/><path class="cls-7" d="m593.15,967.26s1.71,2.91,3.06,2.27-2.54-3.1-3.14-3.07c-.37.02.07.79.07.79Z"/><path class="cls-7" d="m598.14,967.03s2.72,2,3.71.89-3.56-1.86-4.09-1.59c-.33.16.38.7.38.7Z"/><path class="cls-7" d="m601.07,950.78s1.61,2.97,2.98,2.38-2.43-3.19-3.03-3.17c-.37.01.04.79.04.79Z"/></g><path class="cls-10" d="m152.66,131.37c50.36-42.51,147.82-59.46,218.57-15.73,93.12,57.56,134.24,192.52,135.12,371.27l-166.74-3.88c-8-164.45-14.11-242.23-72.46-249.08-51.19-6.01-76.52,62.15-76.52,114.61h-111.99c-1.27-67.2-1.27-153.62,74.03-217.18Z"/><path class="cls-16" d="m357.4,108c-14.95,31.79-47.25,53.79-84.7,53.79s-69.1-21.56-84.25-52.83c48.73-22.54,114.76-27.48,168.95-.96Z"/><path class="cls-16" d="m506.35,486.9c-.18-37.65-2.16-73.35-6.02-106.8-5.71-.34-11.74-.51-18.15-.51-62.72,0-117.54,11.67-144.78,60.16.75,13.7,1.47,28.12,2.21,43.28l166.74,3.88Z"/><path class="cls-5" d="m240.43,409.71c-5.57-7.02-37.92-33.64-47.24-42.08l-2.86-19.08h-111.99s-10.85,17.35-11.22,36.05c-.41,20.9-2.09,40.56,1.29,49.62,4.74,12.74,19.56,6.41,19.56,6.41,12.26,11.82,28.88,2.01,28.88,2.01,12.2,11.56,35.52.28,35.52.28,0,46.99,4.75,56,18.98,56s18.98-12.95,18.98-34.29c0-16.55.3-42.94.31-43.14,6.76,5.27,24.19,17.55,37.74,15.54,17.16-2.55,17.63-20.29,12.06-27.31Z"/><path class="cls-16" d="m78.64,351.8h111.99c1.79,0,3.25-1.45,3.25-3.25s-1.45-3.25-3.25-3.25h-111.99c-1.79,0-3.25,1.45-3.25,3.25s1.45,3.25,3.25,3.25Z"/><path class="cls-13" d="m215.7,435.6l-19.72-25.26c-1.75-2.24-5.35-1.01-5.35,1.84v9.31l12.31,8.33c3.94,2.27,8.33,4.4,12.76,5.79Z"/><path class="cls-16" d="m438.04,753.55c1.89-.05,3.3-1.54,3.25-3.34-3.72-133.93,4.08-206.28,11.29-243.39,7.91-40.75,16.89-49.4,16.98-49.49-.06.05-4.22-4.94-4.22-4.94-1.03.86-10.3,9.55-18.55,50.25-7.57,37.35-15.8,110.64-11.98,247.74.05,1.76,1.49,3.16,3.24,3.16Z"/><path class="cls-17" d="m659.74,910.51c-47.58,49.01-114.17,79.47-187.88,79.47s-138.61-29.69-186.06-77.62l28.02-120.16,8.6-36.9h316.59s6.91,51.72,6.91,51.72l.25,1.9s.01.01,0,.01l13.57,101.58Z"/><path class="cls-4" d="m131.55,495.85h90.14c14.1,0,25.55,11.45,25.55,25.55v47.65H106v-47.65c0-14.1,11.45-25.55,25.55-25.55Z"/><rect class="cls-17" x="93.19" y="548.45" width="166.86" height="75.89" rx="9.97" ry="9.97"/><path class="cls-10" d="m612.2,446.59c-26.35-28.09-53.76-46.17-119.34-46.17-89.59,0-164.05,17.18-163.07,144.73.21,27.9-.52,121.89-.52,121.89l-71.24,52.25c40.91,53.32,102.37,153.66,200.33,164.22,70.98,7.65,167.37-15.32,208.06-110.64,42.28-99.03,33.75-239.88-54.23-326.29Z"/><path class="cls-16" d="m646.89,807.92c-12.62-11.91-28.75-20.39-47.13-23.6-49.89-8.71-97.4,24.67-106.12,74.57-1.53,8.75-1.75,17.42-.83,25.82,54.53-2,115.52-22.64,154.07-76.79Z"/><path class="cls-5" d="m285.1,580.78c-39.19-37.18-59.07-27.12-66.21-17.9-7.14,9.22-4.96,20.59,5.15,29.56,3.78,3.35,10.49,9.56,17.38,14.52,3.82,2.74,1.83,8.77-2.87,8.7-5.07-.08-11.33.06-18.93.59-27.34,1.91-94.44.67-94.55,29.36-.08,18.73,20.38,23.75,34.59,24.98-14.15,8.42-17.69,20.11-11.98,30.63,3.33,6.13,11.17,7.71,19.13,7.49-.35,9.27,10.32,17.12,18.77,12.92,12.71-6.32,52.83-28.67,52.83-28.67l19.62,26.36,94.97-71.55s-29.78-30.79-67.91-66.96Z"/><path class="cls-13" d="m166.81,711.94c.23,0,.47-.02.7-.08l71.6-15.76c1.75-.39,2.86-2.12,2.47-3.87-.39-1.75-2.12-2.86-3.87-2.47l-71.6,15.76c-1.75.39-2.86,2.12-2.47,3.87.33,1.52,1.68,2.55,3.17,2.55Z"/><path class="cls-13" d="m159.66,673.82c.15,0,78.1-3.53,78.1-3.53,1.79-.08,3.18-1.6,3.1-3.39-.08-1.79-1.6-3.18-3.39-3.1l-77.95,3.53c-1.79.08-3.18,1.6-3.1,3.39.08,1.74,1.52,3.1,3.24,3.1Z"/><path class="cls-16" d="m258.04,722.54c.68,0,1.37-.21,1.95-.65l92.84-69.95c5.26,4.59,20.17,16.83,40.03,26.5,14.45,7.04,28.5,11.22,41.77,12.43,16.76,1.53,32.29-1.69,46.15-9.57,15.09-8.59,26.49-23.11,33.89-43.16,5.82-15.77,9.19-35.01,10-57.17,1.39-37.52-5.11-71.07-5.18-71.4-.35-1.76-2.05-2.91-3.81-2.56-1.76.35-2.91,2.05-2.56,3.81.06.33,6.43,33.24,5.05,70.02-1.25,33.42-9.31,76.99-40.62,94.81-23.09,13.15-50.58,12.14-81.71-2.98-23.58-11.46-40.45-27.15-40.62-27.3-1.15-1.08-2.92-1.18-4.18-.23l-94.97,71.55c-1.43,1.08-1.72,3.12-.64,4.55.64.85,1.61,1.29,2.6,1.29Z"/><path class="cls-6" d="m278.63,728.16c0,7.61,6.17,13.78,13.78,13.78s13.78-6.17,13.78-13.78-6.17-13.78-13.78-13.78-13.78,6.17-13.78,13.78Z"/><path class="cls-16" d="m448.59,488.06c16.03,0,33.32-5.12,51.4-15.21,16.31-9.11,33.85-22.61,52.14-40.12l17.92-17.16c1.3-1.24,1.34-3.3.1-4.59-1.24-1.3-3.3-1.34-4.59-.1l-17.92,17.16c-17.89,17.13-34.99,30.3-50.82,39.14-17.09,9.55-33.32,14.39-48.22,14.39-2.01,0-4.02-.09-5.98-.26-15.75-1.37-29.68-8.6-39.24-20.37-8.74-10.76-13.55-24.65-14.28-41.27-.08-1.74-1.51-3.1-3.24-3.1-1.94.08-3.33,1.6-3.25,3.39.8,18.04,6.09,33.21,15.73,45.07,10.68,13.15,26.21,21.23,43.72,22.75,2.14.19,4.34.28,6.53.28Z"/><path class="cls-6" d="m546.76,406.07c-14.68-3.67-32.2-5.65-53.9-5.65-31.93,0-61.93,2.18-87.29,10.77-.56,12.74,1.32,27.94,10.59,39.36,6.82,8.39,16.46,13.35,27.88,14.34,1.49.13,3.02.19,4.54.19,24.24,0,53.73-16.47,87.65-48.95l10.52-10.07Z"/><path class="cls-5" d="m492.86,400.42c-23.8,0-46.53,1.21-67.07,5.38-1.79,14.81-.68,37.64,19.95,39.43,24.74,2.15,57.46-24.79,76.85-43.35-8.97-.96-18.82-1.47-29.74-1.47Z"/><path class="cls-17" d="m402.3,306.19c.94,34.58,32.35,63.27,66.94,62.62,34.59-.65,62.09-29.22,61.44-63.81-.65-34.59-29.22-61.35-63.81-61.44-43.93-.11-65.71,20.67-64.57,62.63Z"/><path class="cls-5" d="m398.82,328.72c-.03-15.02,2.71-30.69,4.66-39.96.9-4.29,5.4-6.77,9.51-5.26,4.12,1.52,9.09,3.09,12.73,3.37,9.12.7,19.85-1.6,27.26-3.67,4.48-1.25,8.94,2.04,9.1,6.7.51,14.97.81,37.16,15.07,38.78,0,0-3.17,29.85,25.3,29.85v54.77l-54.4,4.29v-34.97c-49.23.57-49.14-5.88-49.23-53.91Z"/><path class="cls-13" d="m471.25,389.27c-3.24,5.48-9.88,13.77-23.2,22.14v-28.79l19.5.13c3.33.02,5.39,3.65,3.7,6.52Z"/><path class="cls-5" d="m462.71,339.8c3.4,7.98,12.63,11.69,20.6,8.29,7.98-3.4,11.69-12.63,8.29-20.6-3.4-7.98-12.63-11.69-20.6-8.29-7.98,3.4-11.69,12.63-8.29,20.6Z"/><path class="cls-13" d="m468.3,337.42c2.08,4.89,7.74,7.16,12.63,5.08,4.89-2.08,7.16-7.74,5.08-12.63-2.08-4.89-7.74-7.16-12.63-5.08-4.89,2.08-7.16,7.74-5.08,12.63Z"/><path class="cls-17" d="m403.28,325.24c-.1,1.8,1.28,3.34,3.07,3.44,1.8.1,3.34-1.28,3.44-3.08.1-1.8-1.28-3.34-3.07-3.44-1.8-.1-3.34,1.28-3.44,3.07Z"/><path class="cls-17" d="m435.68,325.24c-.1,1.8,1.28,3.34,3.07,3.44,1.8.1,3.34-1.28,3.44-3.08.1-1.8-1.28-3.34-3.07-3.44-1.8-.1-3.34,1.28-3.44,3.07Z"/><path class="cls-3" d="m433.43,343.08c.7,5.27,5.54,8.97,10.81,8.27,5.27-.7,8.97-5.54,8.27-10.81-.7-5.27-5.54-8.97-10.81-8.27-5.27.7-8.97,5.54-8.27,10.81Z"/><path class="cls-6" d="m407.87,349.03l19.93.03c1.72,0,2.92,1.73,2.28,3.33-1.26,3.12-4.33,7.41-11.79,8.11-7.88.74-11.3-4.5-12.71-8.14-.62-1.6.57-3.32,2.29-3.32Z"/><path class="cls-6" d="m398.97,309.8h39.31c1.79,0,3.25-1.45,3.25-3.25s-1.45-3.25-3.25-3.25h-39.31c-1.79,0-3.25,1.45-3.25,3.25s1.45,3.25,3.25,3.25Z"/><path class="cls-6" d="m397.39,347.53c4.7,0,9.19-1.46,12.98-4.21,1.45-1.05,1.77-3.08.72-4.54-1.05-1.45-3.09-1.77-4.54-.72-2.68,1.94-5.85,2.97-9.17,2.97-8.61,0-15.62-7.01-15.62-15.62s7.01-15.62,15.62-15.62c8.11,0,14.79,6.08,15.55,14.14.17,1.79,1.75,3.1,3.54,2.93,1.79-.17,3.1-1.75,2.93-3.54-1.07-11.42-10.53-20.03-22.01-20.03-12.19,0-22.11,9.92-22.11,22.11s9.92,22.11,22.11,22.11Z"/><path class="cls-6" d="m438.29,303.31c-6.1,0-11.64,2.49-15.65,6.5-2.03,2.04-3.67,4.48-4.79,7.19-.02.05-.04.09-.05.14-1.05,2.56-1.62,5.36-1.62,8.28,0,.49.02.98.05,1.47.12,1.89.49,3.72,1.07,5.45,2.58,7.82,9.42,13.73,17.76,14.95,1.05.16,2.13.24,3.23.24,5.44,0,10.44-1.98,14.3-5.26,4.78-4.06,7.81-10.11,7.81-16.85,0-12.19-9.92-22.11-22.11-22.11Zm11.93,32.17c-2.86,3.4-7.15,5.56-11.93,5.56-1.69,0-3.31-.27-4.83-.76-6.25-2.04-10.79-7.93-10.79-14.86,0-8.61,7.01-15.61,15.62-15.61s15.61,7,15.61,15.61c0,3.83-1.38,7.34-3.68,10.06Z"/><path class="cls-13" d="m411.99,347.23c.78,0,1.55-.28,2.17-.84,1.33-1.2,1.44-3.25.24-4.59l-4.16-4.61,4.86-2.29c.45-.21.85-.53,1.16-.92.27-.34,6.48-8.39.07-19.98-.87-1.57-2.84-2.14-4.41-1.27-1.57.87-2.14,2.84-1.27,4.41,3.52,6.37,1.7,10.79.87,12.26l-4.2,1.98c-1.84.87-3.13,2.51-3.53,4.5-.4,2,.15,4.01,1.51,5.52l4.27,4.74c.64.71,1.52,1.07,2.41,1.07Z"/><path class="cls-17" d="m428.63,275.7c0,11.53-9.35,20.88-20.88,20.88s-20.88-9.35-20.88-20.88,9.35-20.88,20.88-20.88,20.88,9.35,20.88,20.88Z"/><path class="cls-17" d="m448.29,253.2c0,11.53-9.35,20.88-20.88,20.88s-20.88-9.35-20.88-20.88,9.35-20.88,20.88-20.88,20.88,9.35,20.88,20.88Z"/><path class="cls-17" d="m465.2,278.02c0,11.53-9.35,20.88-20.88,20.88s-20.88-9.35-20.88-20.88,9.35-20.88,20.88-20.88,20.88,9.35,20.88,20.88Z"/><path class="cls-16" d="m405.42,683.65c1.81-.01,3.26-1.47,3.25-3.27-.45-69.86,5.28-119.5,10.16-148.84,5.29-31.79,10.75-47.25,10.81-47.41.6-1.69-.27-3.55-1.96-4.15-1.69-.61-3.55.27-4.15,1.96-.23.64-5.67,15.98-11.05,48.24-4.95,29.63-10.75,79.75-10.3,150.24.01,1.79,1.46,3.23,3.25,3.23Z"/><path class="cls-6" d="m497.38,554.3c0,12.97-10.51,23.48-23.48,23.48s-23.48-10.51-23.48-23.48,10.51-23.48,23.48-23.48,23.48,10.51,23.48,23.48Z"/><path class="cls-16" d="m412.55,268.05c1.73,0,3.17-1.37,3.24-3.12.32-7.9,5.16-8.45,6.13-8.48-.05,0-.05-6.49-.05-6.49-4.14,0-12.1,3.08-12.57,14.72-.07,1.79,1.32,3.3,3.12,3.37.04,0,.09,0,.13,0Z"/><path class="cls-16" d="m445.94,287.38c5.49,0,13.92-2.19,16.15-10.87.44-1.74-.6-3.51-2.34-3.95-1.73-.45-3.51.6-3.95,2.34-1.74,6.79-10.75,5.97-11.13,5.93-1.77-.18-3.38,1.11-3.56,2.89-.19,1.78,1.1,3.37,2.87,3.57.59.06,1.25.1,1.96.1Z"/><path class="cls-17" d="m448.29,249.49c1.59,0,2.99-1.18,3.21-2.8,1.77-12.69-7.14-19.51-12.09-21.35-1.68-.62-3.55.23-4.17,1.91-.62,1.68.23,3.54,1.9,4.17.08.03,2.53,1.01,4.69,3.29,2.77,2.91,3.86,6.65,3.24,11.09-.25,1.78.99,3.42,2.77,3.66.15.02.3.03.45.03Z"/><path class="cls-17" d="m506.49,262.42c4.2,0,8.32-2.96,10.59-5.36,1.23-1.3,1.18-3.36-.12-4.59-1.3-1.23-3.36-1.18-4.59.12-.98,1.02-5.07,4.51-7.09,2.88-1.14-.92-.82-5.07.24-8.17.58-1.69-.32-3.54-2.02-4.12-1.69-.58-3.54.31-4.12,2.01-.63,1.81-3.49,11.07,1.83,15.34,1.68,1.36,3.49,1.9,5.28,1.9Z"/><path class="cls-14" d="m106,534.07h141.24c1.79,0,3.25-1.45,3.25-3.25s-1.45-3.25-3.25-3.25H106c-1.79,0-3.25,1.45-3.25,3.25s1.45,3.25,3.25,3.25Z"/><g class="cls-18"><path class="cls-9" d="m274.49,825.49s-33.75,1.01-44.87,39.35c-11.12,38.34-30.05,43.08-17.45,78.15,12.6,35.07,57.13.71,73.13,6.46,16,5.75,65.03,8.92,58.91-40.13-6.12-49.04-30.59-87.68-69.72-83.83Z"/><polygon class="cls-12" points="275.71 819.56 300.7 782.95 306.73 788.93 277.83 822.92 275.71 819.56"/><path class="cls-15" d="m292.7,805.46s-20.51,55.88-67.29,59.03c-46.78,3.15-44.81-25.98-44.81-25.98,0,0,47.32-56.3,112.1-33.05Z"/><path class="cls-7" d="m337.13,922.43s.06,7.14-3.07,7.47,1.22-8.4,2.34-8.98c.69-.36.73,1.51.73,1.51Z"/><path class="cls-7" d="m327.84,927.47s-2.74,6.59-5.75,5.66,4.42-7.25,5.68-7.34c.77-.06.08,1.68.08,1.68Z"/><path class="cls-7" d="m332.53,910.75s.32,7.13-2.81,7.57c-3.12.44.92-8.44,2.02-9.06.67-.38.78,1.49.78,1.49Z"/><path class="cls-4" d="m335.75,552.71s-18.03-9.6-29.89,2.82c-11.86,12.42,2.32,36.14,26.29,28.24,23.97-7.91,10.69-28.48,3.6-31.06Z"/><path class="cls-15" d="m310.1,560.62s-24,9.46-16.09-2.33c7.91-11.79,3.95-23.93,11.29-24.21s19.8,22.98,4.8,26.54Z"/><path class="cls-7" d="m314.43,579.12s2.01,2.92,3.38,2.16-2.89-3.07-3.51-2.98c-.38.05.13.82.13.82Z"/><path class="cls-7" d="m319.65,578.52s2.99,1.9,3.95.66-3.86-1.69-4.4-1.36c-.33.2.45.7.45.7Z"/><path class="cls-7" d="m312.97,573.06s1.91,2.99,3.3,2.28-2.78-3.17-3.41-3.1c-.38.04.11.83.11.83Z"/><path class="cls-15" d="m679.49,844.32s-46.46,5.17-47.98-46.22c0,0,18.85-7.23,35.91,10.83,0,0-3.4-48.92,74-53.63l-8.14,24.71,34.49,1.32s25.37,46.95-29.4,78.9l24.36,15.32s-30.48,16.58-52.39,1.35l-30.83-32.58Z"/><path class="cls-4" d="m600.44,947.55s31.56-43.49,45.2-54.14c13.64-10.65,13.31-35.26,22.21-44.82,8.91-9.56,8.4-18.55,21.83-12.49,13.43,6.07,35.36,24.41,8.6,43.03-26.76,18.62-31.62,45.14-43.67,53.1-12.05,7.96-33.17,13.17-44.47,29.37s-30.68,20.58-33.96,17.04c-3.28-3.54,2.41-2.55,24.25-31.1Z"/><path class="cls-7" d="m641.78,918.42s1.71,2.91,3.06,2.27c1.35-.63-2.54-3.1-3.14-3.07-.37.02.07.79.07.79Z"/><path class="cls-7" d="m662.08,911.47s2.72,2,3.71.89-3.56-1.86-4.09-1.59c-.33.16.38.7.38.7Z"/><path class="cls-7" d="m640.8,912.57s1.61,2.97,2.98,2.38-2.43-3.19-3.03-3.17c-.37.01.04.79.04.79Z"/><path class="cls-7" d="m668.52,881.82s1.71,2.91,3.06,2.27c1.35-.63-2.54-3.1-3.14-3.07-.37.02.07.79.07.79Z"/><path class="cls-7" d="m673.51,881.59s2.72,2,3.71.89-3.56-1.86-4.09-1.59c-.33.16.38.7.38.7Z"/><path class="cls-7" d="m702.6,861.97s2.72,2,3.71.89-3.56-1.86-4.09-1.59c-.33.16.38.7.38.7Z"/><path class="cls-7" d="m666.42,858.4s1.61,2.97,2.98,2.38-2.43-3.19-3.03-3.17c-.37.01.04.79.04.79Z"/><path class="cls-7" d="m671.38,855.44s1.61,2.97,2.98,2.38-2.43-3.19-3.03-3.17c-.37.01.04.79.04.79Z"/><path class="cls-7" d="m593.15,967.26s1.71,2.91,3.06,2.27-2.54-3.1-3.14-3.07c-.37.02.07.79.07.79Z"/><path class="cls-7" d="m598.14,967.03s2.72,2,3.71.89-3.56-1.86-4.09-1.59c-.33.16.38.7.38.7Z"/><path class="cls-7" d="m601.07,950.78s1.61,2.97,2.98,2.38-2.43-3.19-3.03-3.17c-.37.01.04.79.04.79Z"/></g></svg>